<svg width="34" height="35" viewBox="0 0 34 35" fill="none" xmlns="http://www.w3.org/2000/svg">
<g clip-path="url(#clip0_211_2072)">
<path d="M30.0806 9.03335C30.0806 9.35772 30.3468 9.62066 30.6752 9.62066H31.2697C31.5981 9.62066 31.8643 9.35772 31.8643 9.03335C31.8643 8.70899 31.5981 8.44604 31.2697 8.44604H30.6752C30.3468 8.44604 30.0806 8.70899 30.0806 9.03335Z" fill="#212326"/>
<path d="M12.8384 27.2399H15.7267L14.8858 26.4093C14.6628 26.1891 14.3604 26.0653 14.045 26.0653H12.8384C8.24126 26.0653 4.51456 22.3841 4.51456 17.843C4.51456 13.3019 8.24126 9.62067 12.8384 9.62066H22.3513C26.9485 9.62066 30.6752 13.3019 30.6752 17.843C30.6752 22.3841 26.9485 26.0653 22.3513 26.0653H18.7927C18.3197 26.0653 17.866 25.8797 17.5315 25.5493L16.5464 24.5762C15.9889 24.0255 15.2327 23.7161 14.4443 23.7161H12.8384C9.55471 23.7161 6.8928 21.0866 6.8928 17.843C6.8928 14.5993 9.55471 11.9699 12.8384 11.9699H22.3513C25.635 11.9699 28.2969 14.5993 28.2969 17.843C28.2969 21.0866 25.635 23.7161 22.3513 23.7161H20.0664C19.5933 23.7161 19.1396 23.5304 18.8051 23.2L17.82 22.2269C17.2625 21.6762 16.5063 21.3668 15.7179 21.3668H12.8384C10.8682 21.3668 9.27103 19.7891 9.27103 17.843C9.27103 15.8968 10.8682 14.3191 12.8384 14.3191H22.3513C24.3215 14.3191 25.9187 15.8968 25.9187 17.843C25.9187 19.7654 24.3602 21.3283 22.4233 21.3661L22.4229 21.3668H21.5528C21.0797 21.3668 20.626 21.1812 20.2915 20.8508L19.3064 19.8777C18.849 19.4258 18.2578 19.1364 17.6247 19.0471L17.5949 19.0176H12.8384C12.1817 19.0176 11.6493 18.4917 11.6493 17.843C11.6493 17.1943 12.1817 16.6684 12.8384 16.6684H22.3513C23.0081 16.6684 23.5405 17.1943 23.5405 17.843C23.5405 18.4917 23.0081 19.0176 22.3513 19.0176H19.9731L20.814 19.8482C21.0369 20.0685 21.3394 20.1922 21.6548 20.1922H22.3513C23.6648 20.1922 24.7296 19.1404 24.7296 17.843C24.7296 16.5455 23.6648 15.4937 22.3513 15.4937H12.8384C11.5249 15.4937 10.4602 16.5455 10.4602 17.843C10.4602 19.1404 11.5249 20.1922 12.8384 20.1922H17.2043C17.6774 20.1922 18.1311 20.3779 18.4656 20.7083L19.4507 21.6813C20.0082 22.2321 20.7643 22.5415 21.5528 22.5415H22.6486V22.5324C25.1371 22.3809 27.1078 20.3392 27.1078 17.843C27.1078 15.2481 24.9782 13.1445 22.3513 13.1445H12.8384C10.2115 13.1445 8.08191 15.2481 8.08191 17.843C8.08191 20.4379 10.2115 22.5415 12.8384 22.5415H15.7179C16.191 22.5415 16.6447 22.7271 16.9792 23.0575L17.9643 24.0306C18.5218 24.5813 19.2779 24.8907 20.0664 24.8907H22.3513C26.2917 24.8907 29.4861 21.7353 29.4861 17.843C29.4861 13.9506 26.2917 10.7953 22.3513 10.7953H12.8384C8.89798 10.7953 5.70368 13.9506 5.70368 17.843C5.70368 21.7353 8.89798 24.8907 12.8384 24.8907H14.4443C14.9173 24.8907 15.371 25.0763 15.7055 25.4067L16.6907 26.3798C17.2482 26.9305 18.0043 27.2399 18.7927 27.2399H22.3513C27.6052 27.2399 31.8643 23.0328 31.8643 17.843C31.8643 12.6532 27.6052 8.44604 22.3513 8.44604L12.8384 8.44605C7.58453 8.44605 3.32544 12.6532 3.32544 17.843C3.32544 23.0328 7.58453 27.2399 12.8384 27.2399Z" fill="#212326"/>
</g>
<defs>
<clipPath id="clip0_211_2072">
<rect width="28.5388" height="18.7939" fill="white" transform="translate(3.32544 8.44604)"/>
</clipPath>
</defs>
</svg>
