<svg width="34" height="35" viewBox="0 0 34 35" fill="none" xmlns="http://www.w3.org/2000/svg">
<g clip-path="url(#clip0_211_2049)">
<path fill-rule="evenodd" clip-rule="evenodd" d="M10.0459 10.6139L3.09509 17.4948C4.48538 18.8712 6.07357 20.0311 7.80514 20.9386C8.28376 22.1954 9.03398 23.3741 10.0558 24.3856C13.9001 28.1912 20.1329 28.1912 23.9772 24.3856C24.999 23.3741 25.7492 22.1954 26.2278 20.9385C27.9594 20.0311 29.5476 18.8712 30.9379 17.4948L23.9927 10.6195C23.9875 10.6144 23.9824 10.6092 23.9772 10.6041C20.1329 6.79847 13.9001 6.79847 10.0558 10.6041C10.0525 10.6074 10.0492 10.6107 10.0459 10.6139ZM23.3121 22.18C21.2865 22.8567 19.1602 23.2033 17.0165 23.2033C14.8728 23.2033 12.7465 22.8567 10.721 22.18C10.9404 22.4683 11.1827 22.7449 11.4479 23.0074C14.5234 26.052 19.5096 26.052 22.585 23.0074C22.8502 22.7449 23.0926 22.4683 23.3121 22.18ZM11.5907 11.8444C12.113 12.186 12.6683 12.4783 13.2494 12.7166C14.4437 13.2063 15.7237 13.4584 17.0165 13.4584C18.3092 13.4584 19.5893 13.2063 20.7836 12.7166C21.3647 12.4783 21.92 12.186 22.4423 11.8444C19.4053 8.98368 14.6277 8.98369 11.5907 11.8444Z" fill="#3B4158"/>
</g>
<defs>
<clipPath id="clip0_211_2049">
<rect width="27.8428" height="19.4899" fill="white" transform="translate(3.09509 7.74988)"/>
</clipPath>
</defs>
</svg>
