<svg width="39" height="35" viewBox="0 0 39 35" fill="none" xmlns="http://www.w3.org/2000/svg">
<g clip-path="url(#clip0_211_2052)">
<path d="M38.5802 14.4807C38.5842 14.4516 38.5842 14.4223 38.5802 14.3933C38.584 14.3696 38.584 14.3455 38.5802 14.3218L38.2966 12.2805C38.2557 12.0362 38.1463 11.808 37.9807 11.6212L37.932 11.5656L37.8429 11.4782L32.9331 7.33203L33.0709 7.46707C32.9582 7.3349 32.8167 7.22918 32.6569 7.1577C32.4971 7.08622 32.3229 7.0508 32.1473 7.05404H30.6565C30.4141 7.04933 30.1772 7.12489 29.984 7.2685C29.7812 7.12576 29.5369 7.05058 29.2872 7.05404H27.7965C27.601 7.05093 27.4081 7.0985 27.2374 7.19195C27.0666 7.2854 26.9241 7.42141 26.8243 7.58621C26.6703 7.82159 26.6124 8.10518 26.6622 8.3805L26.8486 9.66725C26.7251 9.59864 26.5854 9.56304 26.4435 9.564H19.2246C18.9656 9.56559 18.7126 9.64002 18.4954 9.77845C18.2854 9.9073 18.1169 10.0918 18.0093 10.3106L17.4503 9.84199C17.2302 9.64241 16.9398 9.53423 16.6401 9.54017H5.31354C5.05362 9.54481 4.79947 9.616 4.57628 9.74668C4.27094 9.92189 4.04716 10.2068 3.95241 10.541L0.355144 22.3362C0.28793 22.5305 0.281318 22.7401 0.336155 22.9382C0.390992 23.1362 0.504794 23.3138 0.663022 23.4482C0.704252 23.4824 0.747543 23.5143 0.792657 23.5435C0.792657 23.5435 0.719727 23.4958 0.679217 23.4561L5.58903 27.6103C5.79672 27.7977 6.06827 27.9025 6.35056 27.9041H17.7663C18.027 27.8975 18.2813 27.8235 18.5035 27.6897C18.6292 27.6223 18.7417 27.5336 18.8357 27.4275L18.8762 27.3719L18.941 27.2925L18.9896 27.2051L19.5244 27.6579C19.7291 27.8379 19.9948 27.937 20.2698 27.9359H31.7097C31.9701 27.9274 32.224 27.8536 32.447 27.7215C32.5699 27.65 32.6817 27.5617 32.7792 27.4593L32.8197 27.4037L32.8845 27.3243C32.9189 27.2741 32.9488 27.2209 32.9736 27.1654C33.0001 27.1173 33.0218 27.0668 33.0384 27.0145L36.3197 16.244V16.1487C36.3238 16.1117 36.3238 16.0744 36.3197 16.0375V15.966C36.3237 15.9423 36.3237 15.9182 36.3197 15.8945C36.3234 15.8443 36.3234 15.7938 36.3197 15.7435H37.373C37.4646 15.7518 37.5568 15.7518 37.6484 15.7435H37.7214C37.7807 15.7262 37.8378 15.7022 37.8915 15.6721H37.9726L38.1184 15.5609L38.1832 15.5132L38.2966 15.3702V15.3226L38.3776 15.1876C38.3731 15.1613 38.3731 15.1344 38.3776 15.1082C38.3733 15.0953 38.3733 15.0813 38.3776 15.0684C38.3949 15.0219 38.4084 14.974 38.4182 14.9254C38.4144 14.9098 38.4144 14.8934 38.4182 14.8778C38.4142 14.8541 38.4142 14.83 38.4182 14.8063C38.4182 14.8063 38.5802 14.4965 38.5802 14.4807Z" fill="black"/>
<path d="M16.9723 10.4457C17.0153 10.4838 17.0453 10.534 17.0584 10.5893C17.0714 10.6447 17.0668 10.7027 17.0452 10.7555L13.4561 22.5427C13.4109 22.6714 13.3184 22.779 13.1968 22.8446C13.0978 22.9095 12.9833 22.9478 12.8646 22.9558H1.45705C1.35963 22.9512 1.26733 22.9116 1.19778 22.8446C1.15641 22.807 1.12737 22.7583 1.11438 22.7046C1.10139 22.6508 1.10505 22.5945 1.12487 22.5427L4.72214 10.7555C4.76358 10.6251 4.85314 10.5147 4.97329 10.4457C5.07388 10.3855 5.18787 10.35 5.30548 10.3424H16.713C16.8097 10.3433 16.9024 10.3803 16.9723 10.4457ZM11.0173 20.1678L13.1644 13.1304H7.15274L5.0138 20.1678H11.0173ZM27.8613 10.5648C27.9002 10.6092 27.9489 10.6443 28.0036 10.6677C28.0583 10.6911 28.1177 10.7021 28.1773 10.6999H29.66C29.7164 10.7004 29.772 10.6868 29.8217 10.6604C29.8713 10.634 29.9132 10.5956 29.9435 10.5489C29.9698 10.5125 29.9885 10.4712 29.9982 10.4275C30.0079 10.3838 30.0086 10.3387 30.0002 10.2948L29.7086 8.19785C29.6808 8.1008 29.6309 8.01118 29.5628 7.93573C29.5238 7.89139 29.4752 7.85622 29.4205 7.83285C29.3658 7.80947 29.3064 7.79848 29.2468 7.8007H27.7641C27.7076 7.80017 27.652 7.81374 27.6024 7.84014C27.5528 7.86655 27.5108 7.90492 27.4805 7.95162C27.4238 8.06282 27.3995 8.13431 27.4238 8.19785L27.7236 10.2948C27.739 10.3969 27.7872 10.4915 27.8613 10.5648ZM32.5686 8.18196C32.5408 8.08491 32.4909 7.99529 32.4227 7.91985C32.3854 7.87567 32.3382 7.84051 32.2848 7.81709C32.2315 7.79368 32.1733 7.78263 32.1149 7.78482H30.6241C30.5686 7.78327 30.5136 7.79647 30.4651 7.82304C30.4166 7.84961 30.3764 7.88855 30.3486 7.93573C30.2947 8.0062 30.2714 8.09471 30.2838 8.18196L30.5836 10.2789C30.6024 10.3799 30.6501 10.4736 30.7213 10.5489C30.7609 10.5924 30.8097 10.627 30.8643 10.6503C30.9188 10.6736 30.9778 10.6851 31.0373 10.684H32.5281C32.5835 10.6847 32.638 10.6711 32.6863 10.6446C32.7347 10.6182 32.7751 10.5797 32.8035 10.5331C32.8317 10.4975 32.8514 10.4562 32.8612 10.4123C32.8711 10.3683 32.8707 10.3227 32.8602 10.2789L32.5686 8.18196ZM26.5569 11.3591L26.411 10.3265H19.2246C19.1118 10.3326 19.0026 10.3683 18.9086 10.4298C18.849 10.4617 18.797 10.5059 18.7565 10.5594C18.7159 10.6129 18.6877 10.6743 18.6737 10.7396L18.0742 12.7094C18.0502 12.7586 18.042 12.8139 18.0507 12.8677C18.0594 12.9216 18.0845 12.9716 18.1228 13.0112C18.1911 13.0742 18.2803 13.1109 18.3739 13.1145H27.1079L24.9608 20.1519H16.2512C16.1389 20.1544 16.0295 20.1874 15.9353 20.2472C15.8207 20.3186 15.737 20.4289 15.7003 20.557L15.0926 22.5268C15.0728 22.5774 15.0676 22.6323 15.0776 22.6856C15.0876 22.7389 15.1124 22.7883 15.1493 22.8286C15.2155 22.8958 15.3054 22.9356 15.4005 22.9398H26.8405C26.9588 22.9299 27.0728 22.8917 27.1726 22.8286C27.2923 22.7628 27.382 22.655 27.4238 22.5268L30.7132 11.7563H27.0106C26.9519 11.7574 26.8935 11.7467 26.8392 11.7248C26.7848 11.703 26.7357 11.6704 26.6947 11.6292C26.6277 11.5571 26.5803 11.4697 26.5569 11.375V11.3591Z" fill="white"/>
</g>
<defs>
<clipPath id="clip0_211_2052">
<rect width="38.2838" height="20.8821" fill="white" transform="translate(0.299377 7.05383)"/>
</clipPath>
</defs>
</svg>
