<svg width="37" height="35" viewBox="0 0 37 35" fill="none" xmlns="http://www.w3.org/2000/svg">
<g clip-path="url(#clip0_211_2076)">
<path d="M8.81748 10.5342C7.40395 10.5342 6.04833 11.0957 5.04882 12.0952L1.78683 15.3572C0.787319 16.3567 0.2258 17.7123 0.2258 19.1259C0.2258 22.0694 2.61199 24.4556 5.55551 24.4556C6.96904 24.4556 8.32466 23.894 9.32417 22.8945L11.5805 20.6382C11.5805 20.6381 11.5805 20.6382 11.5805 20.6382L18.1547 14.064C18.6321 13.5866 19.2795 13.3185 19.9546 13.3185C21.0848 13.3185 22.043 14.0551 22.3752 15.0744L24.45 12.9996C23.5035 11.5172 21.8439 10.5342 19.9546 10.5342C18.5411 10.5342 17.1854 11.0957 16.1859 12.0952L7.35541 20.9258C6.87804 21.4031 6.23061 21.6713 5.55551 21.6713C4.1497 21.6713 3.01008 20.5317 3.01008 19.1259C3.01008 18.4508 3.27825 17.8033 3.75561 17.326L7.01758 14.064C7.49495 13.5866 8.14238 13.3185 8.81748 13.3185C9.94775 13.3185 10.9059 14.0551 11.2381 15.0745L13.313 12.9997C12.3665 11.5172 10.7068 10.5342 8.81748 10.5342Z" fill="#394149"/>
<path d="M18.4925 20.9258C18.0152 21.4031 17.3677 21.6713 16.6926 21.6713C15.5625 21.6713 14.6044 20.9348 14.2721 19.9157L12.1974 21.9904C13.1439 23.4727 14.8035 24.4556 16.6926 24.4556C18.1062 24.4556 19.4618 23.894 20.4613 22.8945L29.2918 14.064C29.7692 13.5866 30.4166 13.3185 31.0917 13.3185C32.4975 13.3185 33.6371 14.4581 33.6371 15.8639C33.6371 16.539 33.369 17.1864 32.8916 17.6638L29.6296 20.9258C29.1523 21.4031 28.5048 21.6713 27.8297 21.6713C26.6995 21.6713 25.7414 20.9347 25.4091 19.9154L23.3344 21.9902C24.2809 23.4726 25.9405 24.4556 27.8297 24.4556C29.2433 24.4556 30.5989 23.894 31.5984 22.8945L34.8604 19.6326C35.8599 18.633 36.4214 17.2774 36.4214 15.8639C36.4214 12.9204 34.0352 10.5342 31.0917 10.5342C29.6782 10.5342 28.3225 11.0957 27.323 12.0952L18.4925 20.9258Z" fill="#394149"/>
</g>
<defs>
<clipPath id="clip0_211_2076">
<rect width="36.1956" height="13.9214" fill="white" transform="translate(0.2258 10.5342)"/>
</clipPath>
</defs>
</svg>
