<svg width="28" height="29" viewBox="0 0 28 29" fill="none" xmlns="http://www.w3.org/2000/svg">
<path fill-rule="evenodd" clip-rule="evenodd" d="M6.97907 0.680176C10.8233 0.680176 13.9398 3.79658 13.9398 7.64087V0.680176H20.9005C24.7447 0.680176 27.8612 3.79658 27.8612 7.64087C27.8612 11.4851 24.7447 14.6016 20.9005 14.6016C24.7447 14.6016 27.8612 17.718 27.8612 21.5623C27.8612 23.4711 27.0928 25.2005 25.8485 26.458L25.8224 26.4842L25.7993 26.5072C24.5415 27.7533 22.8109 28.523 20.9005 28.523C19.003 28.523 17.2829 27.7638 16.0273 26.5325C16.011 26.5165 15.9947 26.5004 15.9785 26.4842C15.9632 26.469 15.9481 26.4537 15.933 26.4383C14.7001 25.1824 13.9398 23.4611 13.9398 21.5623C13.9398 25.4065 10.8233 28.523 6.97907 28.523C3.13478 28.523 0.0183716 25.4065 0.0183716 21.5623V14.6016H6.97907C3.13478 14.6016 0.0183716 11.4851 0.0183716 7.64087C0.0183716 3.79658 3.13478 0.680176 6.97907 0.680176ZM12.5476 7.64087C12.5476 10.7163 10.0545 13.2094 6.97907 13.2094V2.07231C10.0545 2.07231 12.5476 4.56544 12.5476 7.64087ZM26.469 21.5623C26.469 18.4868 23.9759 15.9937 20.9005 15.9937C17.825 15.9937 15.3319 18.4868 15.3319 21.5623H26.469ZM1.41051 15.9937V21.5623C1.41051 24.6377 3.90364 27.1308 6.97907 27.1308C10.0545 27.1308 12.5476 24.6377 12.5476 21.5623V15.9937H1.41051ZM15.3319 13.2094V2.07231H20.9005C23.9759 2.07231 26.469 4.56544 26.469 7.64087C26.469 10.7163 23.9759 13.2094 20.9005 13.2094H15.3319Z" fill="#263238"/>
</svg>
